<svg width="42" height="35" viewBox="0 0 42 35" fill="none" xmlns="http://www.w3.org/2000/svg">
<g clip-path="url(#clip0_57_14)">
<path d="M10.8649 0.192661C9.99788 1.54128 8.7777 3.80505 8.87403 3.90138C8.93825 3.9656 13.4015 4.04587 18.78 4.06193C27.7066 4.09404 28.5575 4.11009 28.6057 4.35092C28.6378 4.51147 28.3488 5.1055 27.9956 5.69954C27.6263 6.30963 27.2571 6.95184 27.1768 7.12844C27.0804 7.3211 26.9199 7.6422 26.7915 7.85092C26.6791 8.07569 26.6149 8.31651 26.647 8.38073C26.7754 8.58945 35.8626 8.52523 35.8626 8.31651C35.8626 8.22018 35.6538 7.7867 35.3809 7.35321C35.108 6.93578 34.8993 6.51835 34.8993 6.43807C34.8993 6.37385 34.6905 6.00459 34.4176 5.65138C34.1607 5.28211 33.936 4.9289 33.936 4.88073C33.936 4.81651 33.6309 4.25459 33.2456 3.62844C32.8603 3.00229 32.5071 2.37615 32.4428 2.24771C32.3786 2.11927 32.186 1.78211 32.0093 1.52523C31.8327 1.25229 31.608 0.866972 31.5277 0.642202C31.4314 0.433486 31.2548 0.19266 31.1584 0.12844C31.046 0.0642201 26.4704 0 20.9795 0C13.1607 0 10.9612 0.0481653 10.8649 0.192661V0.192661ZM5.90384 8.87844C5.7754 8.95872 5.5988 9.16743 5.50247 9.36009C5.42219 9.55275 5.29375 9.82569 5.19742 9.95413C4.74788 10.6445 3.59191 12.6514 3.59191 12.7477C3.59191 12.8119 3.46347 13.0528 3.28687 13.2936C3.12632 13.5344 2.58045 14.4495 2.06669 15.3326C1.55292 16.2156 1.07127 16.9541 0.990997 16.9862C0.766226 17.0826 0.846502 17.5642 1.21577 18.1422C1.89008 19.2018 1.97036 19.3463 2.13091 19.6995C2.4199 20.3417 3.11026 21.3532 3.25476 21.3532C3.33503 21.3532 3.57586 21 3.80063 20.5826C4.58733 19.0894 6.48182 15.7982 6.97953 15.0596C7.15614 14.8188 7.28458 14.578 7.28458 14.5298C7.28458 14.4817 7.83045 13.5344 8.4887 12.4266C9.14696 11.3188 9.69283 10.3716 9.69283 10.3073C9.69283 10.2592 9.88549 9.93807 10.1103 9.60092C10.3511 9.26376 10.4956 8.92661 10.4314 8.86238C10.2548 8.70183 6.19283 8.71789 5.90384 8.87844V8.87844ZM16.6286 8.83028C15.9061 8.91055 15.9061 8.91055 15.1355 10.4358C14.9428 10.8372 14.5415 11.5115 14.2685 11.961C13.9795 12.3945 13.5139 13.1972 13.2249 13.7271C12.936 14.2569 12.6149 14.8028 12.5185 14.9312C12.4222 15.0596 12.1974 15.4289 12.0208 15.7339C11.4589 16.7454 10.9933 17.5642 10.6561 18.1422C10.0782 19.1216 9.66072 19.844 7.79834 23.0872L5.96806 26.25L6.25705 26.8119C6.4176 27.117 6.85109 27.8716 7.22036 28.4977C7.57357 29.1078 7.92678 29.7821 7.991 29.9748C8.05522 30.1835 8.1676 30.344 8.23182 30.344C8.29604 30.344 8.50476 30.6491 8.71348 31.0183C8.90614 31.4037 9.21118 31.9174 9.38779 32.1904C9.54834 32.4472 9.78916 32.8807 9.9176 33.1537C10.046 33.4106 10.3671 33.9404 10.6401 34.3257L11.1378 35H31.0621L31.335 34.5183C31.4795 34.2615 31.6561 34.0367 31.7364 34.0367C31.8006 34.0367 31.8488 33.9564 31.8488 33.8601C31.8488 33.7638 32.0896 33.2661 32.3947 32.7683C32.6837 32.2706 33.1332 31.5 33.374 31.0665C33.6149 30.617 34.3052 29.4289 34.8993 28.4174C38.5598 22.172 38.4956 22.3005 38.2548 22.1399C38.1263 22.0596 37.8213 22.0275 37.5644 22.0757C37.3075 22.1239 36.3603 22.156 35.4612 22.156H33.8075L32.8121 23.8739C32.2662 24.8372 31.2066 26.6353 30.4681 27.8876C29.7295 29.1399 29.1194 30.2317 29.1194 30.328C29.1194 30.8096 28.3809 30.8578 20.8832 30.8417C16.7249 30.8257 13.3213 30.8096 13.3052 30.7775C12.8878 30.2477 10.8167 26.5069 10.8167 26.3142C10.8167 26.1537 11.1378 25.4794 11.5392 24.8372C11.9405 24.1789 12.2616 23.5849 12.2616 23.5367C12.2616 23.4725 12.4382 23.1835 12.663 22.8945C12.8878 22.6055 13.0644 22.3165 13.0644 22.2523C13.0644 22.1881 13.4337 21.5298 13.8671 20.7752C14.3167 20.0206 14.6699 19.3945 14.6699 19.3624C14.6699 19.2982 16.5002 16.1674 17.1584 15.1239C17.3993 14.7546 17.7685 14.1124 17.9772 13.695C18.202 13.2775 18.7479 12.3463 19.1814 11.6078C19.6149 10.8693 19.9681 10.2271 19.9681 10.1628C19.9681 10.1147 20.1607 9.82569 20.3855 9.52064C20.6103 9.2156 20.7548 8.92661 20.7066 8.86238C20.5782 8.73394 17.608 8.71789 16.6286 8.83028V8.83028Z" fill="white"/>
<path d="M23.5163 13.6306C23.2916 13.8875 22.9223 14.4494 22.6975 14.8669C22.1677 15.9105 21.6861 16.7774 17.7044 23.6329C17.3512 24.2109 17.0783 24.7568 17.0783 24.821C17.0783 24.8852 16.9177 25.11 16.7411 25.3027C16.3076 25.7683 16.4361 26.2499 16.9659 26.1054C17.1585 26.0572 19.3099 26.0091 21.7503 26.0091H26.1654L26.5186 25.3187C26.9682 24.4517 27.5301 23.4724 27.8994 22.9265C28.3971 22.1719 28.2526 22.1077 25.8925 22.0916C23.7893 22.0756 23.7411 22.0756 23.6929 21.7224C23.6608 21.4976 23.9659 20.8072 24.4796 19.9563C24.9452 19.1857 25.459 18.2866 25.6195 17.9494L25.9085 17.3394H33.4544C38.1907 17.3394 41.0003 17.2751 41.0003 17.1788C41.0003 17.0022 39.1379 13.8394 38.7847 13.438C38.5599 13.1811 38.0301 13.165 31.2388 13.165L23.9338 13.1811L23.5163 13.6306Z" fill="white"/>
</g>
<defs>
<clipPath id="clip0_57_14">
<rect width="41.7661" height="35" fill="white"/>
</clipPath>
</defs>
</svg>
